<?xml version="1.0" standalone="no"?>
<!DOCTYPE svg PUBLIC "-//W3C//DTD SVG 20010904//EN"
 "http://www.w3.org/TR/2001/REC-SVG-20010904/DTD/svg10.dtd">
<svg version="1.0" xmlns="http://www.w3.org/2000/svg"
 width="163.000000pt" height="107.000000pt" viewBox="0 0 163.000000 107.000000"
 preserveAspectRatio="xMidYMid meet">
<metadata>
Created by potrace 1.13, written by Peter Selinger 2001-2015
</metadata>
<g transform="translate(0.000000,107.000000) scale(0.100000,-0.100000)"
fill="#ffffff" stroke="none">
<path d="M750 1051 c-19 -11 -61 -24 -92 -31 -102 -20 -145 -100 -98 -178 11
-18 32 -38 46 -44 22 -10 25 -17 20 -41 -3 -16 -6 -33 -6 -38 0 -5 -12 -9 -27
-9 -51 0 -104 -21 -143 -56 -108 -98 -87 -273 40 -342 64 -34 160 -29 218 12
51 35 92 112 92 173 0 30 4 43 14 43 9 0 12 -8 9 -24 -3 -13 2 -49 11 -79 39
-133 205 -191 319 -111 61 43 87 94 87 175 0 55 -5 72 -29 111 -31 49 -112 98
-163 98 -24 0 -28 4 -28 28 0 21 7 30 31 41 61 27 86 104 52 161 -19 33 -80
70 -114 70 -13 0 -44 14 -68 30 -53 36 -117 40 -171 11z m159 -45 c16 -15 39
-26 54 -26 74 0 139 -67 118 -122 -11 -29 -47 -58 -72 -58 -12 0 -18 -13 -23
-49 -5 -40 -11 -51 -29 -57 -35 -10 -86 -52 -102 -85 -12 -22 -22 -29 -45 -29
-17 0 -30 4 -30 10 0 17 -69 87 -98 99 -27 11 -28 14 -24 66 4 51 3 55 -20 64
-31 12 -68 57 -68 82 0 10 13 33 28 50 23 26 38 32 82 37 33 3 67 14 89 29 45
31 101 27 140 -11z m-233 -361 c78 -46 106 -151 61 -229 -42 -74 -108 -102
-190 -81 -55 14 -82 36 -108 87 -76 149 92 308 237 223z m421 14 c65 -24 106
-91 105 -170 -1 -42 -13 -72 -46 -107 -88 -98 -251 -55 -286 76 -34 131 99
250 227 201z"/>
<path d="M632 938 c-15 -15 -15 -61 0 -76 15 -15 74 -16 83 -1 11 17 -2 21
-24 8 -34 -22 -36 0 -3 34 18 18 29 36 26 40 -12 11 -69 8 -82 -5z m58 -8 c0
-13 -49 -44 -57 -36 -9 8 27 46 44 46 7 0 13 -4 13 -10z"/>
<path d="M742 938 c-16 -16 -15 -63 2 -77 8 -7 33 -11 55 -10 l41 3 0 46 0 46
-43 2 c-23 2 -48 -3 -55 -10z m73 -18 c17 -19 17 -21 0 -40 -10 -11 -23 -20
-30 -20 -7 0 -20 9 -30 20 -17 19 -17 21 0 40 10 11 23 20 30 20 7 0 20 -9 30
-20z"/>
<path d="M860 931 c0 -10 10 -25 23 -34 17 -12 19 -18 10 -28 -10 -10 -15 -10
-28 1 -12 10 -15 10 -15 -4 0 -13 7 -17 33 -14 40 4 50 39 18 60 -24 15 -28
30 -6 22 8 -4 15 -1 15 5 0 6 -11 11 -25 11 -18 0 -25 -5 -25 -19z"/>
<path d="M943 905 c2 -49 3 -50 35 -53 17 -2 32 -8 32 -13 0 -16 -29 -22 -45
-9 -17 14 -31 8 -20 -9 9 -16 61 -13 74 3 7 8 11 36 9 63 -2 39 -7 49 -23 52
-19 3 -20 3 -2 -17 15 -16 16 -24 7 -41 -21 -41 -48 -24 -61 39 -7 31 -7 29
-6 -15z"/>
<path d="M636 492 c-11 -32 4 -53 33 -50 22 2 26 8 26 33 0 25 -4 31 -27 33
-19 2 -28 -2 -32 -16z"/>
<path d="M924 496 c-11 -28 1 -51 27 -54 29 -3 44 18 34 49 -8 23 -53 26 -61
5z"/>
<path d="M0 510 c0 -189 2 -220 15 -220 12 0 15 16 15 85 l0 85 150 0 c125 0
150 2 150 15 0 12 -25 15 -145 17 -193 4 -193 22 0 26 120 2 145 5 145 17 0
13 -25 15 -150 15 l-150 0 0 75 0 75 160 0 c136 0 160 2 160 15 0 13 -26 15
-175 15 l-175 0 0 -220z"/>
<path d="M1290 510 c0 -189 2 -220 15 -220 13 0 15 30 15 210 0 133 4 210 10
210 6 0 10 -77 10 -210 l0 -210 66 0 c59 0 71 4 119 36 139 92 139 281 -1 370
-50 32 -58 34 -144 34 l-90 0 0 -220z m208 174 c71 -35 102 -88 102 -173 0
-34 -6 -74 -14 -89 -34 -65 -112 -112 -186 -112 l-40 0 0 200 0 200 43 0 c26
0 63 -10 95 -26z"/>
<path d="M786 295 c-11 -8 -45 -24 -75 -36 -43 -16 -60 -18 -78 -10 -30 14
-30 -3 -1 -23 29 -20 87 -20 137 0 36 14 43 14 85 0 54 -18 109 -21 137 -6 30
16 23 25 -21 26 -25 1 -65 14 -101 33 -69 36 -59 34 -83 16z"/>
<path d="M763 145 c2 -5 14 -40 26 -78 13 -37 24 -67 26 -67 3 0 12 24 20 53
9 28 20 63 24 77 8 25 7 25 -45 25 -32 0 -53 -4 -51 -10z"/>
</g>
</svg>
